<?xml version="1.0" encoding="UTF-8"?>
<svg xmlns="http://www.w3.org/2000/svg" version="1.1" viewBox="0 1576.76 753.64 786.36" preserveAspectRatio="xMidYMid meet">
  <path fill="#fffdf5" d="M105.67,1721.69c-9.91,11.06-18.21,23.94-22.48,38.25-4.48,15.02-3.74,30.85.56,45.81,4.42,15.37,12.35,29.4,21.79,42.22,9.58,13.02,20.71,24.82,31.76,36.59.45.47,1.41,2.2,1.6,2.78.63,1.95,1.26,3.9,1.9,5.86.5,1.54-.85,3.17-2.41,3.16-2.87-.02-5.74-.05-8.61-.05-22.27-.07-45.19.73-66.06,9.33-8.57,3.54-16.73,8.43-23.58,14.7-7.23,6.61-12.73,14.68-16.19,23.84-3.89,10.29-5.65,21.22-7.5,32.02-2.06,12.08-4.13,24.16-6.2,36.24-2.07,12.08-4.15,24.15-6.2,36.22-2.02,11.94-3.87,23.96-4.04,36.1-.31,21.86,5.91,43.36,18.02,61.59.19.29.31.57.37.85.05.04.11.09.16.13,1.68,1.41,3.38,2.82,5.08,4.2,13.74,11.21,28.21,21.51,43.26,30.88,15.11,9.41,30.81,17.87,46.97,25.31,8.06,3.7,16.23,7.15,24.51,10.32,8.9,3.42,18.02,6.56,27.49,7.95,8.34,1.22,16.82.69,24.86-1.89,7.13-2.28,13.69-6.06,19.66-10.53,12.45-9.31,22.42-21.62,31.97-33.75,0,0,0-.01.01-.01.39-.74,1.09-1.26,2.09-1.26,1.23,0,2.67,1.16,2.5,2.5-.36,2.78-.71,5.55-1.06,8.32-2.85,22.83-5.17,46.02-2.26,68.97,2.28,18.05,8.31,36.02,18.97,50.88,5.18,7.21,11.57,13.59,18.89,18.62,7.08,4.85,14.88,8.52,22.99,11.27,26.95,9.14,30.08,3.42,52.48,10.69,20.11,6.53,31.48,15.67,51.02,12.77,2.51-.37,4.48-.84,5.27-1.04,14.66-3.72,26.53-14.05,36.87-24.62,5.53-5.65,10.83-11.55,16.12-17.42,5.49-6.09,10.9-12.24,16.08-18.59,10.14-12.42,19.42-25.71,26.14-40.32,6.82-14.83,10.46-30.91,10.36-47.25-.1-16.55-3.9-33.08-11.25-47.92-.11-.23-.19-.45-.23-.67-1.57-2.2,1.68-5.18,3.9-3.13,1.64,1.52,3.3,3.01,4.98,4.47,13.74,11.88,29.47,22.11,46.81,27.85,8.39,2.77,17.12,4.47,25.97,4.6,8.94.13,17.76-1.38,26.2-4.32,16.81-5.84,31.37-16.84,44.68-28.39,7.17-6.22,14.12-12.71,21.09-19.14,7.48-6.91,14.94-13.85,22.27-20.91,14.48-13.95,28.52-28.4,41.31-43.93,1.1-2.27,2.09-4.57,2.99-6.91,7.57-19.98,8.06-42.37,1.6-62.72-3.34-10.5-8.79-19.81-14.99-28.85-6.36-9.26-13.02-18.43-16.94-29.06-3.79-10.32-4.8-21.4-6.04-32.24-1.19-10.51-2.56-21.39-7.27-31-8.6-17.55-27.18-27.16-45.85-30.03-24.11-3.7-48.48,3.96-71.28,10.89-3.09.94-4.4-3.89-1.33-4.82h0c.13-.22.3-.44.52-.64,1.86-1.71,3.72-3.41,5.58-5.11,14.91-13.69,29.69-27.62,42.74-43.13,12.71-15.11,23.72-31.88,30.73-50.42,6.83-18.03,10.11-37.79,6.95-56.96-4.15-25.08-17.25-43.24-22.05-49.71-13.32-17.95-31.48-32.09-32.77-40.43-.51-2.01-1.15-3.99-1.93-5.92-6.76-16.71-22.98-28.32-39.71-33.65-22.38-7.13-46.61-4.2-69.35-.57-22.13,3.54-44.94,7.48-64.74,18.54-16.16,9.04-29.81,22.31-39.66,37.95-9.86,15.63-15.98,33.62-17.06,52.11-.04.63-.26,1.13-.59,1.51.01,1.07-.89,2.15-1.87,2.42-1.41.38-2.57-.5-3.08-1.75-.82-2.03-1.72-4.02-2.69-5.99-8.25-16.8-21.2-31.11-37.15-40.91-16.52-10.16-35.47-15.34-54.5-18.29-9.64-1.49-19.36-2.39-29.08-3.09-9.97-.72-19.98-1.43-29.97-1.61-10.15-.19-20.44.38-30.11,3.69-8.23,2.82-15.44,7.8-21.4,14.09-11.9,12.54-18.83,29.04-25.25,44.84-.39.94-1.12,1.67-2.07,1.81-1.51,1.16-3.03,2.31-4.54,3.46-12.97,9.91-25.81,20.16-36.74,32.35Z"/>
</svg>
